<svg xmlns="http://www.w3.org/2000/svg" xmlns:xlink="http://www.w3.org/1999/xlink" width="100"
    zoomAndPan="magnify" viewBox="0 0 300 374.999991" height="100"
    preserveAspectRatio="xMidYMid meet" version="1.0">
    <defs>
        <clipPath id="5089798a83">
            <path d="M 153 120 L 283 120 L 283 250 L 153 250 Z M 153 120 " clip-rule="nonzero" />
        </clipPath>
        <clipPath id="0e390c843e">
            <path
                d="M 262.753906 120.605469 L 282.511719 140.363281 L 173.691406 249.183594 L 153.933594 229.425781 Z M 262.753906 120.605469 "
                clip-rule="nonzero" />
        </clipPath>
        <clipPath id="884a851165">
            <path
                d="M 262.753906 120.605469 L 282.511719 140.363281 L 173.71875 249.15625 L 153.964844 229.398438 Z M 262.753906 120.605469 "
                clip-rule="nonzero" />
        </clipPath>
        <clipPath id="38fa6eb994">
            <path
                d="M 262.707031 120.601562 L 282.511719 120.601562 L 282.511719 140.316406 L 262.707031 140.316406 Z M 262.707031 120.601562 "
                clip-rule="nonzero" />
        </clipPath>
        <clipPath id="ff5e43d1a4">
            <path
                d="M 153.964844 229.347656 L 173.789062 229.347656 L 173.789062 249.152344 L 153.964844 249.152344 Z M 153.964844 229.347656 "
                clip-rule="nonzero" />
        </clipPath>
        <clipPath id="d88d8f701a">
            <path
                d="M 153.957031 99.40625 L 282.507812 99.40625 L 282.507812 123.492188 L 153.957031 123.492188 Z M 153.957031 99.40625 "
                clip-rule="nonzero" />
        </clipPath>
        <clipPath id="14b58a36be">
            <path
                d="M 153.957031 248.109375 L 282.777344 248.109375 L 282.777344 272.199219 L 153.957031 272.199219 Z M 153.957031 248.109375 "
                clip-rule="nonzero" />
        </clipPath>
        <clipPath id="e786d565ac">
            <path
                d="M 263.164062 224.644531 L 282.785156 224.644531 L 282.785156 249.738281 L 263.164062 249.738281 Z M 263.164062 224.644531 "
                clip-rule="nonzero" />
        </clipPath>
        <clipPath id="46cb2d3e5c">
            <path
                d="M 153.964844 121.839844 L 173.585938 121.839844 L 173.585938 146.933594 L 153.964844 146.933594 Z M 153.964844 121.839844 "
                clip-rule="nonzero" />
        </clipPath>
        <clipPath id="4b48581cec">
            <path
                d="M 92.214844 229.972656 L 137.839844 229.972656 L 137.839844 275.59375 L 92.214844 275.59375 Z M 92.214844 229.972656 "
                clip-rule="nonzero" />
        </clipPath>
        <clipPath id="6920b33e95">
            <path
                d="M 115.027344 229.972656 C 102.429688 229.972656 92.214844 240.183594 92.214844 252.785156 C 92.214844 265.382812 102.429688 275.59375 115.027344 275.59375 C 127.625 275.59375 137.839844 265.382812 137.839844 252.785156 C 137.839844 240.183594 127.625 229.972656 115.027344 229.972656 Z M 115.027344 229.972656 "
                clip-rule="nonzero" />
        </clipPath>
    </defs>
    <g clip-path="url(#5089798a83)">
        <g clip-path="url(#0e390c843e)">
            <g clip-path="url(#884a851165)">
                <path fill="#d4ff5c"
                    d="M 262.753906 120.605469 L 282.511719 140.363281 L 173.691406 249.183594 L 153.933594 229.425781 Z M 262.753906 120.605469 "
                    fill-opacity="1" fill-rule="nonzero" />
            </g>
        </g>
    </g>
    <g clip-path="url(#38fa6eb994)">
        <path fill="#005741"
            d="M 262.707031 120.601562 L 282.5 120.601562 L 282.5 140.316406 L 262.707031 140.316406 Z M 262.707031 120.601562 "
            fill-opacity="1" fill-rule="nonzero" />
    </g>
    <g clip-path="url(#ff5e43d1a4)">
        <path fill="#005741"
            d="M 153.964844 229.347656 L 173.769531 229.347656 L 173.769531 249.152344 L 153.964844 249.152344 Z M 153.964844 229.347656 "
            fill-opacity="1" fill-rule="nonzero" />
    </g>
    <g clip-path="url(#d88d8f701a)">
        <path fill="#005741"
            d="M 282.507812 99.40625 L 282.507812 123.492188 L 153.96875 123.492188 L 153.96875 99.40625 Z M 282.507812 99.40625 "
            fill-opacity="1" fill-rule="nonzero" />
    </g>
    <g clip-path="url(#14b58a36be)">
        <path fill="#005741"
            d="M 282.777344 248.109375 L 282.777344 272.199219 L 153.957031 272.199219 L 153.957031 248.109375 Z M 282.777344 248.109375 "
            fill-opacity="1" fill-rule="nonzero" />
    </g>
    <g clip-path="url(#e786d565ac)">
        <path fill="#005741"
            d="M 263.164062 224.644531 L 282.785156 224.644531 L 282.785156 249.707031 L 263.164062 249.707031 Z M 263.164062 224.644531 "
            fill-opacity="1" fill-rule="nonzero" />
    </g>
    <g clip-path="url(#46cb2d3e5c)">
        <path fill="#005741"
            d="M 153.964844 121.839844 L 173.585938 121.839844 L 173.585938 146.902344 L 153.964844 146.902344 Z M 153.964844 121.839844 "
            fill-opacity="1" fill-rule="nonzero" />
    </g>
    <g clip-path="url(#4b48581cec)">
        <g clip-path="url(#6920b33e95)">
            <path fill="#d4ff5c"
                d="M 92.214844 229.972656 L 137.839844 229.972656 L 137.839844 275.59375 L 92.214844 275.59375 Z M 92.214844 229.972656 "
                fill-opacity="1" fill-rule="nonzero" />
        </g>
    </g>
</svg>